<svg width="26" height="26" viewBox="0 0 26 26" fill="none" xmlns="http://www.w3.org/2000/svg">
<path d="M12.946 7.33081C9.84058 7.33081 7.33569 9.83569 7.33569 12.9412C7.33569 16.0466 9.84058 18.5515 12.946 18.5515C16.0515 18.5515 18.5564 16.0466 18.5564 12.9412C18.5564 9.83569 16.0515 7.33081 12.946 7.33081ZM12.946 16.5886C10.9392 16.5886 9.29858 14.9529 9.29858 12.9412C9.29858 10.9294 10.9343 9.2937 12.946 9.2937C14.9578 9.2937 16.5935 10.9294 16.5935 12.9412C16.5935 14.9529 14.9529 16.5886 12.946 16.5886V16.5886ZM20.0945 7.10132C20.0945 7.82886 19.5085 8.40991 18.7859 8.40991C18.0584 8.40991 17.4773 7.82397 17.4773 7.10132C17.4773 6.37866 18.0632 5.79272 18.7859 5.79272C19.5085 5.79272 20.0945 6.37866 20.0945 7.10132ZM23.8103 8.42944C23.7273 6.67651 23.3269 5.12378 22.0427 3.84448C20.7634 2.56519 19.2107 2.16479 17.4578 2.0769C15.6511 1.97437 10.2361 1.97437 8.42944 2.0769C6.6814 2.15991 5.12866 2.5603 3.84448 3.8396C2.5603 5.1189 2.16479 6.67163 2.0769 8.42456C1.97437 10.2312 1.97437 15.6462 2.0769 17.4529C2.15991 19.2058 2.5603 20.7585 3.84448 22.0378C5.12866 23.3171 6.67651 23.7175 8.42944 23.8054C10.2361 23.908 15.6511 23.908 17.4578 23.8054C19.2107 23.7224 20.7634 23.322 22.0427 22.0378C23.322 20.7585 23.7224 19.2058 23.8103 17.4529C23.9128 15.6462 23.9128 10.2361 23.8103 8.42944V8.42944ZM21.4763 19.3914C21.0955 20.3484 20.3582 21.0857 19.3962 21.4714C17.9558 22.0427 14.5378 21.9109 12.946 21.9109C11.3542 21.9109 7.9314 22.0378 6.49585 21.4714C5.53882 21.0906 4.80151 20.3533 4.41577 19.3914C3.84448 17.9509 3.97632 14.533 3.97632 12.9412C3.97632 11.3494 3.84937 7.92651 4.41577 6.49097C4.79663 5.53394 5.53394 4.79663 6.49585 4.41089C7.93628 3.8396 11.3542 3.97144 12.946 3.97144C14.5378 3.97144 17.9607 3.84448 19.3962 4.41089C20.3533 4.79175 21.0906 5.52905 21.4763 6.49097C22.0476 7.9314 21.9158 11.3494 21.9158 12.9412C21.9158 14.533 22.0476 17.9558 21.4763 19.3914Z" fill="black"/>
</svg>
